<svg width="16" height="16" viewBox="0 0 32 32" fill="none" xmlns="http://www.w3.org/2000/svg">
<g clip-path="url(#clip0_4015_3)">
<path d="M4.57143 3.42857C3.94286 3.42857 3.42857 3.94286 3.42857 4.57143V27.4286C3.42857 28.0571 3.94286 28.5714 4.57143 28.5714H27.4286C28.0571 28.5714 28.5714 28.0571 28.5714 27.4286V4.57143C28.5714 3.94286 28.0571 3.42857 27.4286 3.42857H4.57143ZM0 4.57143C0 2.05 2.05 0 4.57143 0H27.4286C29.95 0 32 2.05 32 4.57143V27.4286C32 29.95 29.95 32 27.4286 32H4.57143C2.05 32 0 29.95 0 27.4286V4.57143ZM9.14286 6.85714C10.4071 6.85714 11.4286 7.87857 11.4286 9.14286C11.4286 10.4071 10.4071 11.4286 9.14286 11.4286C7.87857 11.4286 6.85714 10.4071 6.85714 9.14286C6.85714 7.87857 7.87857 6.85714 9.14286 6.85714ZM18.8571 12C19.4643 12 20.0286 12.3214 20.3357 12.8429L26.05 22.5571C26.3643 23.0857 26.3643 23.7429 26.0571 24.2786C25.75 24.8143 25.1857 25.1429 24.5714 25.1429H7.42857C6.79286 25.1429 6.2 24.7857 5.90714 24.2214C5.61429 23.6571 5.65714 22.9714 6.02143 22.45L10.0214 16.7357C10.3429 16.2786 10.8643 16.0071 11.4286 16.0071C11.9929 16.0071 12.5143 16.2786 12.8357 16.7357L14.0643 18.4929L17.3857 12.85C17.6929 12.3286 18.2571 12.0071 18.8643 12.0071L18.8571 12Z" fill="black"/>
</g>
<defs>
<clipPath id="clip0_4015_3">
<rect width="32" height="32" fill="white"/>
</clipPath>
</defs>
</svg>

