<svg width="16" height="13" viewBox="0 0 16 13" fill="none" xmlns="http://www.w3.org/2000/svg">
<path d="M1.77778 1.29427H10.6667C10.9111 1.29427 11.1111 1.48841 11.1111 1.7257V3.95562C11.4 3.90978 11.6972 3.88281 12 3.88281C12.15 3.88281 12.2972 3.88821 12.4444 3.90169V1.7257C12.4444 0.773867 11.6472 0 10.6667 0H1.77778C0.797222 0 0 0.773867 0 1.7257V10.3542C0 11.306 0.797222 12.0799 1.77778 12.0799H7.66667C7.375 11.6862 7.13889 11.2521 6.96944 10.7856H1.77778C1.53333 10.7856 1.33333 10.5915 1.33333 10.3542V1.7257C1.33333 1.48841 1.53333 1.29427 1.77778 1.29427ZM7.90833 4.84813C7.78889 4.65129 7.56944 4.52995 7.33333 4.52995C7.09722 4.52995 6.87778 4.65129 6.75833 4.84813L5.46667 6.97828L4.98889 6.31497C4.86389 6.1424 4.66111 6.03993 4.44167 6.03993C4.22222 6.03993 4.01944 6.1424 3.89444 6.31497L2.33889 8.47209C2.19722 8.66892 2.17778 8.92778 2.29444 9.14079C2.41111 9.35381 2.64167 9.49132 2.88889 9.49132H6.68611C6.675 9.34842 6.66667 9.20551 6.66667 9.0599C6.66667 7.62542 7.26667 6.32845 8.23611 5.3928L7.90833 4.85082V4.84813ZM3.55556 4.31424C3.7913 4.31424 4.0174 4.22333 4.18409 4.06152C4.35079 3.8997 4.44444 3.68023 4.44444 3.45139C4.44444 3.22255 4.35079 3.00308 4.18409 2.84127C4.0174 2.67945 3.7913 2.58854 3.55556 2.58854C3.31981 2.58854 3.09372 2.67945 2.92702 2.84127C2.76032 3.00308 2.66667 3.22255 2.66667 3.45139C2.66667 3.68023 2.76032 3.8997 2.92702 4.06152C3.09372 4.22333 3.31981 4.31424 3.55556 4.31424Z" fill="black"/>
<path d="M12.0133 5.26659C9.80987 5.26659 8.02658 6.99621 8.02658 9.1333C8.02658 11.2704 9.80987 13 12.0133 13C14.2167 13 16 11.2704 16 9.1333C16 6.99621 14.2167 5.26659 12.0133 5.26659ZM10.8691 7.46871C11.0211 7.46871 11.1663 7.52723 11.2736 7.63126L12.0133 8.34869L12.753 7.63126C12.8602 7.52723 13.0055 7.46871 13.1575 7.46871C13.3094 7.46871 13.4547 7.52723 13.5619 7.63126C13.7854 7.84801 13.7854 8.19913 13.5619 8.41588L12.8223 9.1333L13.5619 9.85072C13.7854 10.0675 13.7854 10.4186 13.5619 10.6353C13.3385 10.8521 12.9764 10.8521 12.753 10.6353L12.0133 9.91791L11.2736 10.6353C11.0501 10.8521 10.6881 10.8521 10.4646 10.6353C10.2412 10.4186 10.2412 10.0675 10.4646 9.85072L11.2043 9.1333L10.4646 8.41588C10.2412 8.19913 10.2412 7.84801 10.4646 7.63126C10.5719 7.52723 10.7172 7.46871 10.8691 7.46871Z" fill="black"/>
</svg>

