<svg width="30" height="30" viewBox="0 0 30 30" fill="none" xmlns="http://www.w3.org/2000/svg">
<g clip-path="url(#clip0_4001_4)">
<path d="M15.85 3.7C17.11 3.7 18.22 3.82 19.18 4.06C20.16 4.3 20.98 4.65 21.64 5.11C22.3 5.55 22.79 6.09 23.11 6.73C23.45 7.37 23.62 8.09 23.62 8.89C23.62 9.97 23.33 10.88 22.75 11.62C22.19 12.36 21.4 12.92 20.38 13.3C19.38 13.68 18.2 13.89 16.84 13.93L18.1 13.33V14.23L17.08 13.54C18.56 13.58 19.85 13.81 20.95 14.23C22.07 14.65 22.94 15.26 23.56 16.06C24.2 16.86 24.52 17.84 24.52 19C24.52 19.94 24.33 20.78 23.95 21.52C23.59 22.26 23.05 22.89 22.33 23.41C21.63 23.93 20.76 24.33 19.72 24.61C18.68 24.87 17.48 25 16.12 25H4.93V23.02H5.23C5.75 23.02 6.18 22.96 6.52 22.84C6.86 22.7 7.03 22.41 7.03 21.97V6.73C7.03 6.29 6.86 6.01 6.52 5.89C6.18 5.75 5.75 5.68 5.23 5.68H4.93V3.7H15.85ZM11.86 12.82H14.47C15.29 12.82 15.95 12.68 16.45 12.4C16.95 12.12 17.31 11.71 17.53 11.17C17.75 10.63 17.86 9.97 17.86 9.19C17.86 8.47 17.73 7.87 17.47 7.39C17.23 6.91 16.87 6.55 16.39 6.31C15.91 6.05 15.32 5.92 14.62 5.92H12.82V22.78H14.8C15.64 22.78 16.34 22.64 16.9 22.36C17.48 22.06 17.91 21.62 18.19 21.04C18.49 20.44 18.64 19.69 18.64 18.79C18.64 17.99 18.5 17.31 18.22 16.75C17.94 16.17 17.51 15.73 16.93 15.43C16.37 15.11 15.62 14.95 14.68 14.95H11.86V12.82Z" fill="#A7ACAB"/>
</g>
<defs>
<clipPath id="clip0_4001_4">
<rect width="30" height="30" fill="white"/>
</clipPath>
</defs>
</svg>

