
<svg width="117" height="76" viewBox="0 0 117 76" fill="none" xmlns="http://www.w3.org/2000/svg">
<path d="M101.134 73.8738C100.798 74.2549 100.389 74.5658 99.9327 74.7887C99.476 75.0116 98.9798 75.1422 98.4725 75.1728C97.9652 75.2035 97.4568 75.1337 96.9765 74.9674C96.4963 74.8011 96.0536 74.5416 95.6739 74.2038C94.9189 73.5201 94.4648 72.5656 94.4105 71.5485C94.3561 70.5314 94.706 69.534 95.3839 68.7738C99.5937 64.1528 103.034 58.8857 105.574 53.1738C107.753 48.2218 108.858 42.8639 108.814 37.4538C108.666 32.0358 107.368 26.7112 105.004 21.8338C102.264 16.1981 98.6452 11.0337 94.2839 6.53379C93.5806 5.78416 93.2034 4.78606 93.2353 3.75862C93.2672 2.73118 93.7054 1.75838 94.4539 1.05379C94.8236 0.704601 95.2587 0.431912 95.7341 0.251389C96.2095 0.0708651 96.716 -0.0139343 97.2243 0.0018629C97.7325 0.0176601 98.2327 0.133743 98.696 0.34344C99.1593 0.553138 99.5766 0.852317 99.9239 1.22379C104.933 6.39225 109.064 12.3439 112.154 18.8438C114.882 24.624 116.364 30.9135 116.504 37.3038C116.572 43.6929 115.302 50.0256 112.774 55.8938C109.901 62.488 105.969 68.5682 101.134 73.8938V73.8738ZM37.9239 54.6338C38.2445 55.0283 38.4837 55.4823 38.6279 55.9698C38.7721 56.4572 38.8183 56.9684 38.7639 57.4738C38.7153 57.98 38.5666 58.4715 38.3265 58.9198C38.0863 59.368 37.7596 59.7642 37.3651 60.0851C36.9706 60.4061 36.5164 60.6455 36.0286 60.7895C35.5409 60.9334 35.0294 60.9791 34.5239 60.9238C34.0171 60.8736 33.5253 60.7231 33.0773 60.481C32.6292 60.2389 32.2337 59.9101 31.9139 59.5138C29.2515 56.2932 27.109 52.6762 25.5639 48.7938C24.1421 45.2021 23.4028 41.3766 23.3839 37.5138C23.3752 33.6744 24.0911 29.8678 25.4939 26.2938C27.0248 22.4405 29.1544 18.853 31.8039 15.6638C32.1238 15.269 32.5184 14.9413 32.9653 14.6994C33.4121 14.4576 33.9022 14.3063 34.4076 14.2542C34.913 14.2022 35.4238 14.2505 35.9105 14.3963C36.3972 14.542 36.8503 14.7825 37.2439 15.1038C37.6354 15.4241 37.96 15.8184 38.199 16.2642C38.4381 16.71 38.5869 17.1985 38.637 17.7019C38.6872 18.2052 38.6377 18.7135 38.4913 19.1977C38.3449 19.6819 38.1045 20.1325 37.7839 20.5238C35.6983 23.0375 34.0119 25.8572 32.7839 28.8838C30.5495 34.4139 30.571 40.5994 32.8439 46.1138C34.0977 49.1837 35.8143 52.0435 37.9339 54.5938L37.9239 54.6338ZM84.5939 59.5138C83.9478 60.3102 83.0119 60.8176 81.9919 60.9245C80.9719 61.0314 79.9511 60.729 79.1539 60.0838C78.3568 59.4349 77.8496 58.4962 77.7439 57.4738C77.6903 56.9677 77.7379 56.456 77.8838 55.9685C78.0297 55.4809 78.2711 55.0272 78.5939 54.6338C80.7105 52.0832 82.4237 49.2234 83.6739 46.1538C85.9602 40.6455 85.9818 34.4578 83.7339 28.9338C82.5093 25.9085 80.8226 23.0917 78.7339 20.5838L78.6739 20.5138C78.0505 19.7224 77.7593 18.7196 77.862 17.7175C77.9646 16.7153 78.453 15.7923 79.2239 15.1438L79.3039 15.0738C80.1038 14.4452 81.118 14.155 82.1293 14.2653C83.1405 14.3756 84.0684 14.8776 84.7139 15.6638C87.3605 18.8515 89.4837 22.4396 91.0039 26.2938C92.4061 29.8718 93.1252 33.6809 93.1239 37.5238C93.1174 41.3822 92.3987 45.2063 91.0039 48.8038C89.4562 52.684 87.3102 56.2978 84.6439 59.5138H84.5939ZM21.1739 68.7438C21.8639 69.5085 22.2234 70.515 22.1739 71.5438C22.1423 72.0573 22.0088 72.5594 21.7813 73.0208C21.5538 73.4823 21.2368 73.8939 20.8488 74.2317C20.4607 74.5695 20.0094 74.8268 19.521 74.9885C19.0326 75.1502 18.5169 75.2132 18.0039 75.1738C16.9784 75.1053 16.0203 74.6388 15.3339 73.8738C10.499 68.5482 6.56713 62.468 3.69391 55.8738C1.17741 50.0104 -0.0797162 43.6839 0.0039149 37.3038C0.143232 30.9135 1.62532 24.624 4.35391 18.8438C7.44801 12.346 11.5786 6.39497 16.5839 1.22379C17.299 0.522201 18.2578 0.124402 19.2595 0.11365C20.2613 0.102898 21.2284 0.480026 21.9584 1.1661C22.6884 1.85218 23.1247 2.79402 23.1761 3.7945C23.2274 4.79499 22.8898 5.77656 22.2339 6.53379C17.866 11.0304 14.2437 16.1954 11.5039 21.8338C9.16159 26.7059 7.88002 32.0196 7.74391 37.4238C7.70628 42.8354 8.81742 48.1934 11.0039 53.1438C13.5511 58.854 16.9945 64.1204 21.2039 68.7438H21.1739Z" fill="#242424"/>
<path fill-rule="evenodd" clip-rule="evenodd" d="M68.7139 39.6238C70.5039 38.5238 70.4939 37.2838 68.7139 36.3038L54.0939 26.1338C52.6339 25.2538 51.0939 25.7738 51.1539 27.5938L51.2039 48.1638C51.3339 50.1638 52.5139 50.6838 54.2039 49.7638L68.7139 39.6238Z" fill="#70A25F"/>
</svg>
