<svg width="30" height="30" viewBox="0 0 30 30" fill="none" xmlns="http://www.w3.org/2000/svg">
<g clip-path="url(#clip0_4001_15)">
<path d="M14.81 22.9C15.53 22.9 16.14 22.8 16.64 22.6C17.14 22.4 17.52 22.1 17.78 21.7C18.04 21.3 18.17 20.79 18.17 20.17C18.17 19.63 18.04 19.18 17.78 18.82C17.52 18.44 17.14 18.12 16.64 17.86C16.16 17.6 15.58 17.37 14.9 17.17C14.24 16.95 13.5 16.72 12.68 16.48C11.9 16.24 11.14 15.96 10.4 15.64C9.66 15.3 8.99 14.88 8.39 14.38C7.81 13.86 7.34 13.22 6.98 12.46C6.64 11.7 6.47 10.77 6.47 9.67C6.47 8.33 6.79 7.2 7.43 6.28C8.09 5.34 8.96 4.63 10.04 4.15C11.14 3.65 12.34 3.4 13.64 3.4C14.74 3.4 15.71 3.55 16.55 3.85C17.39 4.15 18.12 4.65 18.74 5.35C19.36 6.03 19.89 6.96 20.33 8.14L18.8 7.93L19.4 3.7H21.56V9.34H19.04C18.78 8.58 18.41 7.94 17.93 7.42C17.47 6.88 16.93 6.47 16.31 6.19C15.69 5.91 15.01 5.77 14.27 5.77C13.63 5.77 13.08 5.87 12.62 6.07C12.16 6.27 11.81 6.55 11.57 6.91C11.35 7.27 11.24 7.7 11.24 8.2C11.24 8.72 11.37 9.15 11.63 9.49C11.89 9.83 12.25 10.12 12.71 10.36C13.19 10.58 13.74 10.78 14.36 10.96C15 11.14 15.67 11.32 16.37 11.5C17.25 11.74 18.09 12.02 18.89 12.34C19.69 12.66 20.4 13.08 21.02 13.6C21.66 14.1 22.16 14.73 22.52 15.49C22.88 16.23 23.06 17.15 23.06 18.25C23.06 19.67 22.74 20.91 22.1 21.97C21.48 23.03 20.59 23.85 19.43 24.43C18.27 25.01 16.88 25.3 15.26 25.3C14.1 25.3 12.99 25.12 11.93 24.76C10.89 24.4 9.96 23.82 9.14 23.02C8.32 22.2 7.67 21.1 7.19 19.72L8.81 20.05L8.24 25H5.93V18.31H8.63C8.99 19.27 9.48 20.1 10.1 20.8C10.74 21.48 11.46 22 12.26 22.36C13.08 22.72 13.93 22.9 14.81 22.9Z" fill="#A7ACAB"/>
</g>
<defs>
<clipPath id="clip0_4001_15">
<rect width="30" height="30" fill="white"/>
</clipPath>
</defs>
</svg>

