<svg xmlns="http://www.w3.org/2000/svg" version="1.0" width="12" height="12" viewBox="0 0 1280.000000 1280.000000" preserveAspectRatio="xMidYMid meet">
<g transform="translate(0.000000,1280.000000) scale(0.100000,-0.100000)" fill="#000000" stroke="none">
<path d="M6175 12794 c-27 -2 -122 -8 -210 -14 -1656 -112 -3138 -798 -4186 -1936 -1077 -1169 -1607 -2324 -1743 -3794 -103 -1111 14 -2023 379 -2950 692 -1755 2188 -3176 3981 -3779 1045 -352 2088 -412 3219 -186 1086 218 2094 694 2916 1377 150 124 450 417 603 588 944 1052 1463 2178 1615 3505 39 337 46 473 46 895 -1 434 -9 573 -56 895 -316 2189 -1858 4115 -3969 4958 -564 225 -1133 362 -1750 422 -154 15 -726 28 -845 19z m565 -4003 c556 -104 1026 -352 1405 -742 407 -419 624 -910 651 -1472 18 -347 -103 -936 -260 -1270 -158 -339 -461 -678 -820 -919 -598 -401 -1359 -494 -2065 -253 -371 126 -675 312 -950 580 -335 326 -541 686 -651 1137 -82 335 -86 765 -10 1096 183 792 834 1496 1625 1755 182 60 243 74 500 111 17 2 127 3 245 1 167 -2 241 -8 330 -24z"/>
</g>
<script xmlns=""/></svg>
