<svg xmlns="http://www.w3.org/2000/svg" version="1.0" width="12" height="12" viewBox="0 0 981.000000 1280.000000" preserveAspectRatio="xMidYMid meet">
<g transform="translate(0.000000,1280.000000) scale(0.100000,-0.100000)" fill="#000000" stroke="none">
<path d="M4830 12793 c-837 -43 -1530 -215 -2170 -538 -882 -446 -1519 -1112 -1872 -1955 -189 -453 -292 -943 -318 -1525 -27 -600 53 -1117 245 -1585 50 -122 179 -364 257 -481 276 -417 680 -784 1146 -1042 428 -237 1231 -522 2427 -862 355 -101 543 -161 707 -225 351 -140 602 -313 685 -473 22 -43 27 -65 27 -127 0 -63 -5 -85 -30 -135 -50 -103 -210 -243 -369 -323 -66 -33 -215 -82 -310 -103 -447 -95 -1138 -10 -1720 211 -531 202 -935 446 -1373 829 -95 83 -177 151 -182 151 -4 0 -451 -581 -992 -1290 l-983 -1291 -2 -97 -2 -97 76 -65 c573 -490 993 -775 1548 -1050 406 -202 740 -332 1154 -449 598 -170 1181 -254 1861 -268 1482 -30 2743 371 3749 1194 1026 838 1497 1939 1411 3298 -59 942 -332 1664 -842 2236 -223 249 -540 497 -816 638 -432 220 -1149 438 -2402 731 -184 43 -385 92 -445 110 -520 151 -832 335 -934 550 -23 48 -26 68 -26 155 0 89 3 106 28 157 51 104 179 191 385 262 184 64 297 80 542 81 344 0 611 -50 912 -171 273 -109 484 -242 792 -496 l119 -99 36 34 c592 562 2346 2243 2346 2248 0 10 -363 333 -520 463 -309 256 -645 488 -985 681 -774 439 -1559 663 -2510 715 -167 9 -507 11 -650 3z"/>
</g>
<script xmlns=""/></svg>
