<svg width="30" height="30" viewBox="0 0 30 30" fill="none" xmlns="http://www.w3.org/2000/svg">
<g clip-path="url(#clip0_4001_9)">
<path d="M10.86 22.03L13.56 6.73C13.64 6.29 13.52 6.01 13.2 5.89C12.88 5.75 12.46 5.68 11.94 5.68H11.64L12 3.7H21.99L21.6 5.68H21.3C20.8 5.68 20.37 5.74 20.01 5.86C19.65 5.98 19.43 6.26 19.35 6.7L16.65 21.97C16.57 22.41 16.69 22.7 17.01 22.84C17.33 22.96 17.75 23.02 18.27 23.02H18.57L18.21 25H8.22L8.58 23.02H8.91C9.41 23.02 9.84 22.96 10.2 22.84C10.56 22.7 10.78 22.43 10.86 22.03Z" fill="#A7ACAB"/>
</g>
<defs>
<clipPath id="clip0_4001_9">
<rect width="30" height="30" fill="white"/>
</clipPath>
</defs>
</svg>

