<svg width="30" height="30" viewBox="0 0 30 30" fill="none" xmlns="http://www.w3.org/2000/svg">
<g clip-path="url(#clip0_4001_17)">
<path d="M15.09 25.3C13.49 25.3 12.02 25.04 10.68 24.52C9.34 24 8.17 23.26 7.17 22.3C6.19 21.34 5.42 20.19 4.86 18.85C4.32 17.49 4.05 15.99 4.05 14.35C4.05 12.71 4.32 11.22 4.86 9.88C5.42 8.54 6.19 7.39 7.17 6.43C8.17 5.45 9.34 4.7 10.68 4.18C12.02 3.66 13.49 3.4 15.09 3.4C16.69 3.4 18.16 3.66 19.5 4.18C20.84 4.7 22 5.45 22.98 6.43C23.98 7.39 24.75 8.54 25.29 9.88C25.83 11.22 26.1 12.71 26.1 14.35C26.1 15.99 25.83 17.49 25.29 18.85C24.75 20.19 23.98 21.34 22.98 22.3C22 23.26 20.84 24 19.5 24.52C18.16 25.04 16.69 25.3 15.09 25.3ZM15.09 22.87C15.83 22.87 16.5 22.69 17.1 22.33C17.72 21.95 18.25 21.4 18.69 20.68C19.13 19.96 19.46 19.07 19.68 18.01C19.92 16.95 20.04 15.73 20.04 14.35C20.04 12.97 19.92 11.76 19.68 10.72C19.46 9.66 19.13 8.77 18.69 8.05C18.25 7.31 17.72 6.76 17.1 6.4C16.5 6.02 15.83 5.83 15.09 5.83C14.35 5.83 13.67 6.02 13.05 6.4C12.45 6.76 11.93 7.31 11.49 8.05C11.05 8.77 10.71 9.66 10.47 10.72C10.23 11.76 10.11 12.97 10.11 14.35C10.11 15.73 10.23 16.95 10.47 18.01C10.71 19.07 11.05 19.96 11.49 20.68C11.93 21.4 12.45 21.95 13.05 22.33C13.67 22.69 14.35 22.87 15.09 22.87Z" fill="#A7ACAB"/>
</g>
<defs>
<clipPath id="clip0_4001_17">
<rect width="30" height="30" fill="white"/>
</clipPath>
</defs>
</svg>

