<svg width="30" height="30" viewBox="0 0 30 30" fill="none" xmlns="http://www.w3.org/2000/svg">
<path d="M18.2983 5.54545H21.9886V16.8807C21.9886 18.1534 21.6847 19.267 21.0767 20.2216C20.4744 21.1761 19.6307 21.9205 18.5455 22.4545C17.4602 22.983 16.196 23.2472 14.7528 23.2472C13.304 23.2472 12.0369 22.983 10.9517 22.4545C9.86648 21.9205 9.02273 21.1761 8.42045 20.2216C7.81818 19.267 7.51705 18.1534 7.51705 16.8807V5.54545H11.2074V16.5653C11.2074 17.2301 11.3523 17.821 11.642 18.3381C11.9375 18.8551 12.3523 19.2614 12.8864 19.5568C13.4205 19.8523 14.0426 20 14.7528 20C15.4688 20 16.0909 19.8523 16.6193 19.5568C17.1534 19.2614 17.5653 18.8551 17.8551 18.3381C18.1506 17.821 18.2983 17.2301 18.2983 16.5653V5.54545Z" fill="#A7ACAB"/>
<path d="M6 27.7727H23.5057V29.4091H6V27.7727Z" fill="#A7ACAB"/>
</svg>

