<svg width="1024" height="1024" viewBox="0 0 1024 1024" fill="none" xmlns="http://www.w3.org/2000/svg">
  <g clip-path="url(#clip0_2013_12)">
    <path d="M1024 0H0V1024H1024V0Z" fill="#F0F0F0"/>
    <path d="M247.094 371.759C252.658 363.413 262.025 358.4 272.056 358.4H751.945C761.975 358.4 771.342 363.413 776.906 371.759L859.306 495.359C866.024 505.436 866.024 518.564 859.306 528.641L776.906 652.241C771.342 660.587 761.975 665.6 751.945 665.6H272.056C262.025 665.6 252.658 660.587 247.094 652.241L164.694 528.641C157.976 518.564 157.976 505.436 164.694 495.359L247.094 371.759Z" fill="#4285F4"/>
    <path d="M385 574.962C385 595.269 404.754 609.709 424.103 603.547L620.239 541.085C648.101 532.212 648.101 492.788 620.239 483.915L424.103 421.453C404.754 415.291 385 429.731 385 450.038V574.962Z" fill="white"/>
  </g>
  <defs>
    <clipPath id="clip0_2013_12">
      <rect width="1024" height="1024" fill="white"/>
    </clipPath>
  </defs>
</svg>
